<?xml version="1.0" encoding="UTF-8"?>
<svg xmlns="http://www.w3.org/2000/svg" xmlns:xlink="http://www.w3.org/1999/xlink" width="75px" height="75px" viewBox="0 0 75 75" version="1.1">
<g id="surface1">
<path style=" stroke:none;fill-rule:nonzero;fill:rgb(29.411765%,29.411765%,29.411765%);fill-opacity:1;" d="M 52.625 32.8125 L 43.835938 32.8125 C 42.925781 32.8125 42.1875 32.074219 42.1875 31.164062 L 42.1875 22.375 C 42.1875 21.464844 41.449219 20.726562 40.539062 20.726562 L 34.460938 20.726562 C 33.550781 20.726562 32.8125 21.464844 32.8125 22.375 L 32.8125 31.164062 C 32.8125 32.074219 32.074219 32.8125 31.164062 32.8125 L 22.375 32.8125 C 21.464844 32.8125 20.726562 33.550781 20.726562 34.460938 L 20.726562 40.539062 C 20.726562 41.449219 21.464844 42.1875 22.375 42.1875 L 31.164062 42.1875 C 32.074219 42.1875 32.8125 42.925781 32.8125 43.835938 L 32.8125 52.625 C 32.8125 53.535156 33.550781 54.273438 34.460938 54.273438 L 40.539062 54.273438 C 41.449219 54.273438 42.1875 53.535156 42.1875 52.625 L 42.1875 43.835938 C 42.1875 42.925781 42.925781 42.1875 43.835938 42.1875 L 52.625 42.1875 C 53.535156 42.1875 54.273438 41.449219 54.273438 40.539062 L 54.273438 34.460938 C 54.273438 33.550781 53.535156 32.8125 52.625 32.8125 Z M 52.625 32.8125 "/>
<path style=" stroke:none;fill-rule:nonzero;fill:rgb(29.411765%,29.411765%,29.411765%);fill-opacity:1;" d="M 37.5 0 C 16.789062 0 0 16.789062 0 37.5 C 0 58.210938 16.789062 75 37.5 75 C 58.210938 75 75 58.210938 75 37.5 C 75 16.789062 58.210938 0 37.5 0 Z M 37.5 65.625 C 21.992188 65.625 9.375 53.007812 9.375 37.5 C 9.375 21.992188 21.992188 9.375 37.5 9.375 C 53.007812 9.375 65.625 21.992188 65.625 37.5 C 65.625 53.007812 53.007812 65.625 37.5 65.625 Z M 37.5 65.625 "/>
</g>
</svg>
