<?xml version="1.0" encoding="UTF-8"?>
<svg xmlns="http://www.w3.org/2000/svg" xmlns:xlink="http://www.w3.org/1999/xlink" width="75px" height="75px" viewBox="0 0 75 75" version="1.1">
<g id="surface1">
<path style=" stroke:none;fill-rule:nonzero;fill:rgb(0%,80%,80%);fill-opacity:1;" d="M 25.285156 15 C 19.035156 15 13.949219 20.089844 13.949219 26.34375 C 13.949219 27.210938 14.652344 27.917969 15.523438 27.917969 C 16.390625 27.917969 17.09375 27.210938 17.09375 26.34375 C 17.09375 21.824219 20.769531 18.144531 25.285156 18.144531 C 26.15625 18.144531 26.859375 17.441406 26.859375 16.574219 C 26.859375 15.703125 26.15625 15 25.285156 15 Z M 25.285156 15 "/>
<path style=" stroke:none;fill-rule:nonzero;fill:rgb(40%,80%,80%);fill-opacity:1;" d="M 52.976562 44.167969 C 55.820312 39.707031 57.464844 34.417969 57.464844 28.75 C 57.464844 12.894531 44.578125 0 28.734375 0 C 23.066406 0 17.78125 1.648438 13.324219 4.492188 C 9.777344 6.757812 6.753906 9.777344 4.492188 13.332031 C 1.648438 17.789062 0 23.082031 0 28.75 C 0 44.601562 12.890625 57.5 28.734375 57.5 C 34.398438 57.5 39.6875 55.851562 44.144531 53.007812 C 47.691406 50.742188 50.714844 47.71875 52.976562 44.167969 Z M 38.050781 46.910156 C 35.257812 48.351562 32.085938 49.167969 28.734375 49.167969 C 17.484375 49.167969 8.328125 40.007812 8.328125 28.75 C 8.328125 25.394531 9.140625 22.222656 10.582031 19.425781 C 12.535156 15.640625 15.632812 12.539062 19.417969 10.589844 C 22.214844 9.148438 25.378906 8.332031 28.734375 8.332031 C 39.984375 8.332031 49.136719 17.492188 49.136719 28.75 C 49.136719 32.105469 48.324219 35.273438 46.882812 38.070312 C 44.933594 41.855469 41.835938 44.957031 38.050781 46.910156 Z M 38.050781 46.910156 "/>
<path style=" stroke:none;fill-rule:nonzero;fill:rgb(40%,80%,80%);fill-opacity:1;" d="M 73.171875 64.328125 L 56.582031 47.773438 C 54.222656 51.222656 51.195312 54.246094 47.75 56.613281 L 64.335938 73.167969 C 65.558594 74.390625 67.15625 75 68.753906 75 C 70.351562 75 71.953125 74.390625 73.171875 73.167969 C 75.609375 70.726562 75.609375 66.769531 73.171875 64.328125 Z M 73.171875 64.328125 "/>
</g>
</svg>
